<mxfile host="65bd71144e">
    <diagram id="hjtyThyv_RFDAhus9GB6" name="Model">
        <mxGraphModel dx="6550" dy="3085" grid="1" gridSize="10" guides="1" tooltips="1" connect="1" arrows="1" fold="1" page="0" pageScale="1" pageWidth="850" pageHeight="1100" background="none" math="0" shadow="0">
            <root>
                <mxCell id="0"/>
                <mxCell id="1" parent="0"/>
                <mxCell id="74" style="edgeStyle=orthogonalEdgeStyle;shape=connector;curved=1;rounded=1;html=1;entryX=0.5;entryY=1;entryDx=0;entryDy=0;labelBackgroundColor=default;strokeColor=default;fontFamily=Helvetica;fontSize=11;fontColor=#000000;endArrow=classic;exitX=1;exitY=0.5;exitDx=0;exitDy=0;" edge="1" parent="1" source="47" target="73">
                    <mxGeometry relative="1" as="geometry"/>
                </mxCell>
                <mxCell id="47" value="Member Joined" style="whiteSpace=wrap;html=1;fillColor=#FFFF99;strokeColor=#B09500;fontColor=#000000;" vertex="1" parent="1">
                    <mxGeometry x="-2080" y="-845" width="120" height="60" as="geometry"/>
                </mxCell>
                <mxCell id="48" value="Member CheckedIn" style="whiteSpace=wrap;html=1;fillColor=#FFFF99;strokeColor=#B09500;fontColor=#000000;" vertex="1" parent="1">
                    <mxGeometry x="-950" y="-845" width="120" height="60" as="geometry"/>
                </mxCell>
                <mxCell id="81" style="edgeStyle=orthogonalEdgeStyle;shape=connector;curved=1;rounded=1;html=1;entryX=0.5;entryY=1;entryDx=0;entryDy=0;labelBackgroundColor=default;strokeColor=default;fontFamily=Helvetica;fontSize=11;fontColor=#000000;endArrow=classic;exitX=1;exitY=0.5;exitDx=0;exitDy=0;" edge="1" parent="1" source="49" target="80">
                    <mxGeometry relative="1" as="geometry"/>
                </mxCell>
                <mxCell id="49" value="Payment Entered" style="whiteSpace=wrap;html=1;fillColor=#FFFF99;strokeColor=#B09500;fontColor=#000000;" vertex="1" parent="1">
                    <mxGeometry x="-1640" y="-845" width="120" height="60" as="geometry"/>
                </mxCell>
                <mxCell id="50" value="Payment Recieved" style="whiteSpace=wrap;html=1;fillColor=#FFFF99;strokeColor=#B09500;fontColor=#000000;" vertex="1" parent="1">
                    <mxGeometry x="-1230" y="-845" width="120" height="60" as="geometry"/>
                </mxCell>
                <mxCell id="51" value="Payment Rejected" style="whiteSpace=wrap;html=1;fillColor=#FFFF99;strokeColor=#B09500;fontColor=#000000;" vertex="1" parent="1">
                    <mxGeometry x="-1090" y="-845" width="120" height="60" as="geometry"/>
                </mxCell>
                <mxCell id="52" value="Members" style="text;html=1;align=center;verticalAlign=middle;resizable=0;points=[];autosize=1;strokeColor=none;fillColor=none;fontSize=11;fontFamily=Helvetica;fontColor=#FFFFFF;" vertex="1" parent="1">
                    <mxGeometry x="-2630" y="-830" width="70" height="30" as="geometry"/>
                </mxCell>
                <mxCell id="53" value="Volunteers" style="text;html=1;align=center;verticalAlign=middle;resizable=0;points=[];autosize=1;strokeColor=none;fillColor=none;fontSize=11;fontFamily=Helvetica;fontColor=#FFFFFF;" vertex="1" parent="1">
                    <mxGeometry x="-2630" y="-700" width="80" height="30" as="geometry"/>
                </mxCell>
                <mxCell id="54" value="Volunteered For Shift" style="whiteSpace=wrap;html=1;fillColor=#FFFF99;strokeColor=#B09500;fontColor=#000000;" vertex="1" parent="1">
                    <mxGeometry x="-800" y="-710" width="120" height="60" as="geometry"/>
                </mxCell>
                <mxCell id="55" value="Shift Worked" style="whiteSpace=wrap;html=1;fillColor=#FFFF99;strokeColor=#B09500;fontColor=#000000;" vertex="1" parent="1">
                    <mxGeometry x="-660" y="-710" width="120" height="60" as="geometry"/>
                </mxCell>
                <mxCell id="56" value="Contact" style="shape=umlActor;html=1;verticalLabelPosition=bottom;verticalAlign=top;align=center;fontFamily=Helvetica;fontSize=11;fontColor=#FFFFFF;fillColor=#FFFF99;" vertex="1" parent="1">
                    <mxGeometry x="-2980" y="-1335" width="30" height="60" as="geometry"/>
                </mxCell>
                <mxCell id="57" value="Member" style="shape=umlActor;html=1;verticalLabelPosition=bottom;verticalAlign=top;align=center;fontFamily=Helvetica;fontSize=11;fontColor=#FFFFFF;fillColor=#FFFF99;" vertex="1" parent="1">
                    <mxGeometry x="-2980" y="-1235" width="30" height="60" as="geometry"/>
                </mxCell>
                <mxCell id="59" value="Host" style="shape=umlActor;html=1;verticalLabelPosition=bottom;verticalAlign=top;align=center;fontFamily=Helvetica;fontSize=11;fontColor=#FFFFFF;fillColor=#FFFF99;" vertex="1" parent="1">
                    <mxGeometry x="-2980" y="-1135" width="30" height="60" as="geometry"/>
                </mxCell>
                <mxCell id="65" style="edgeStyle=orthogonalEdgeStyle;shape=connector;curved=1;rounded=1;html=1;labelBackgroundColor=default;strokeColor=default;fontFamily=Helvetica;fontSize=11;fontColor=#000000;endArrow=classic;" edge="1" parent="1" source="61" target="62">
                    <mxGeometry relative="1" as="geometry"/>
                </mxCell>
                <mxCell id="61" value="Register As User" style="whiteSpace=wrap;html=1;labelBackgroundColor=#FFFFFF;fontFamily=Helvetica;fontSize=11;fontColor=#000000;fillColor=#FFFFFF;align=center;labelPosition=center;verticalLabelPosition=middle;verticalAlign=middle;" vertex="1" parent="1">
                    <mxGeometry x="-2870" y="-1350" width="170" height="90" as="geometry"/>
                </mxCell>
                <mxCell id="66" style="edgeStyle=orthogonalEdgeStyle;shape=connector;curved=1;rounded=1;html=1;entryX=0;entryY=0.5;entryDx=0;entryDy=0;labelBackgroundColor=default;strokeColor=default;fontFamily=Helvetica;fontSize=11;fontColor=#000000;endArrow=classic;" edge="1" parent="1" source="62" target="63">
                    <mxGeometry relative="1" as="geometry"/>
                </mxCell>
                <mxCell id="62" value="Register User" style="whiteSpace=wrap;html=1;fillColor=#1ba1e2;fontColor=#000000;strokeColor=#006EAF;labelBackgroundColor=none;fontFamily=Helvetica;fontSize=11;" vertex="1" parent="1">
                    <mxGeometry x="-2720" y="-1040" width="120" height="60" as="geometry"/>
                </mxCell>
                <mxCell id="68" style="edgeStyle=orthogonalEdgeStyle;shape=connector;curved=1;rounded=1;html=1;labelBackgroundColor=default;strokeColor=default;fontFamily=Helvetica;fontSize=11;fontColor=#000000;endArrow=classic;exitX=1;exitY=0.5;exitDx=0;exitDy=0;" edge="1" parent="1" source="63" target="67">
                    <mxGeometry relative="1" as="geometry">
                        <mxPoint x="-2420" y="-960" as="targetPoint"/>
                    </mxGeometry>
                </mxCell>
                <mxCell id="63" value="User Registered" style="whiteSpace=wrap;html=1;fillColor=#FFFF99;strokeColor=#B09500;fontColor=#000000;labelBackgroundColor=none;fontFamily=Helvetica;fontSize=11;" vertex="1" parent="1">
                    <mxGeometry x="-2600" y="-920" width="120" height="60" as="geometry"/>
                </mxCell>
                <mxCell id="67" value="Users" style="whiteSpace=wrap;html=1;fillColor=#60a917;strokeColor=#2D7600;fontColor=#000000;labelBackgroundColor=none;fontFamily=Helvetica;fontSize=11;" vertex="1" parent="1">
                    <mxGeometry x="-2480" y="-1040" width="120" height="60" as="geometry"/>
                </mxCell>
                <mxCell id="72" style="edgeStyle=orthogonalEdgeStyle;shape=connector;curved=1;rounded=1;html=1;entryX=0.5;entryY=0;entryDx=0;entryDy=0;labelBackgroundColor=default;strokeColor=default;fontFamily=Helvetica;fontSize=11;fontColor=#000000;endArrow=classic;" edge="1" parent="1" source="69" target="70">
                    <mxGeometry relative="1" as="geometry"/>
                </mxCell>
                <mxCell id="76" style="edgeStyle=orthogonalEdgeStyle;shape=connector;curved=1;rounded=1;html=1;entryX=0;entryY=0.5;entryDx=0;entryDy=0;labelBackgroundColor=default;strokeColor=default;fontFamily=Helvetica;fontSize=11;fontColor=#000000;endArrow=classic;" edge="1" parent="1" source="69" target="75">
                    <mxGeometry relative="1" as="geometry"/>
                </mxCell>
                <mxCell id="69" value="Become Member" style="whiteSpace=wrap;html=1;labelBackgroundColor=#FFFFFF;fontFamily=Helvetica;fontSize=11;fontColor=#000000;fillColor=#FFFFFF;align=center;labelPosition=center;verticalLabelPosition=middle;verticalAlign=middle;" vertex="1" parent="1">
                    <mxGeometry x="-2320" y="-1350" width="170" height="90" as="geometry"/>
                </mxCell>
                <mxCell id="71" style="edgeStyle=orthogonalEdgeStyle;shape=connector;curved=1;rounded=1;html=1;entryX=0;entryY=0.5;entryDx=0;entryDy=0;labelBackgroundColor=default;strokeColor=default;fontFamily=Helvetica;fontSize=11;fontColor=#000000;endArrow=classic;" edge="1" parent="1" source="70" target="47">
                    <mxGeometry relative="1" as="geometry"/>
                </mxCell>
                <mxCell id="70" value="Start Membership" style="whiteSpace=wrap;html=1;fillColor=#1ba1e2;fontColor=#000000;strokeColor=#006EAF;labelBackgroundColor=none;fontFamily=Helvetica;fontSize=11;" vertex="1" parent="1">
                    <mxGeometry x="-2200" y="-1040" width="120" height="60" as="geometry"/>
                </mxCell>
                <mxCell id="73" value="Memberships" style="whiteSpace=wrap;html=1;fillColor=#60a917;strokeColor=#2D7600;fontColor=#000000;labelBackgroundColor=none;fontFamily=Helvetica;fontSize=11;" vertex="1" parent="1">
                    <mxGeometry x="-1960" y="-1040" width="120" height="60" as="geometry"/>
                </mxCell>
                <mxCell id="78" style="edgeStyle=orthogonalEdgeStyle;shape=connector;curved=1;rounded=1;html=1;entryX=0.5;entryY=0;entryDx=0;entryDy=0;labelBackgroundColor=default;strokeColor=default;fontFamily=Helvetica;fontSize=11;fontColor=#000000;endArrow=classic;" edge="1" parent="1" source="75" target="77">
                    <mxGeometry relative="1" as="geometry"/>
                </mxCell>
                <mxCell id="75" value="Pay Online" style="whiteSpace=wrap;html=1;labelBackgroundColor=#FFFFFF;fontFamily=Helvetica;fontSize=11;fontColor=#000000;fillColor=#FFFFFF;align=center;labelPosition=center;verticalLabelPosition=middle;verticalAlign=middle;" vertex="1" parent="1">
                    <mxGeometry x="-1920" y="-1250" width="170" height="90" as="geometry"/>
                </mxCell>
                <mxCell id="79" style="edgeStyle=orthogonalEdgeStyle;shape=connector;curved=1;rounded=1;html=1;entryX=0;entryY=0.5;entryDx=0;entryDy=0;labelBackgroundColor=default;strokeColor=default;fontFamily=Helvetica;fontSize=11;fontColor=#000000;endArrow=classic;exitX=0.5;exitY=1;exitDx=0;exitDy=0;" edge="1" parent="1" source="77" target="49">
                    <mxGeometry relative="1" as="geometry"/>
                </mxCell>
                <mxCell id="77" value="Apply Payment To Membership" style="whiteSpace=wrap;html=1;fillColor=#1ba1e2;fontColor=#000000;strokeColor=#006EAF;labelBackgroundColor=none;fontFamily=Helvetica;fontSize=11;" vertex="1" parent="1">
                    <mxGeometry x="-1780" y="-1040" width="120" height="60" as="geometry"/>
                </mxCell>
                <mxCell id="83" style="edgeStyle=orthogonalEdgeStyle;shape=connector;curved=1;rounded=1;html=1;entryX=0;entryY=0.5;entryDx=0;entryDy=0;labelBackgroundColor=default;strokeColor=default;fontFamily=Helvetica;fontSize=11;fontColor=#FFFFFF;endArrow=classic;exitX=0.5;exitY=0;exitDx=0;exitDy=0;" edge="1" parent="1" source="80" target="82">
                    <mxGeometry relative="1" as="geometry"/>
                </mxCell>
                <mxCell id="80" value="TODO: Process Payment" style="whiteSpace=wrap;html=1;fillColor=#60a917;strokeColor=#2D7600;fontColor=#000000;labelBackgroundColor=none;fontFamily=Helvetica;fontSize=11;" vertex="1" parent="1">
                    <mxGeometry x="-1530" y="-1040" width="120" height="60" as="geometry"/>
                </mxCell>
                <mxCell id="82" value="&lt;font color=&quot;#ffffff&quot;&gt;Payment Processor&lt;/font&gt;" style="image;html=1;image=img/lib/clip_art/general/Gear_128x128.png;labelBackgroundColor=none;fontFamily=Helvetica;fontSize=11;fontColor=#000000;fillColor=#FFFFFF;" vertex="1" parent="1">
                    <mxGeometry x="-1370" y="-1190" width="80" height="80" as="geometry"/>
                </mxCell>
            </root>
        </mxGraphModel>
    </diagram>
</mxfile>